<?xml version="1.0" standalone="no"?>
<!DOCTYPE svg PUBLIC "-//W3C//DTD SVG 20010904//EN"
 "http://www.w3.org/TR/2001/REC-SVG-20010904/DTD/svg10.dtd">
<svg version="1.0" xmlns="http://www.w3.org/2000/svg"
 width="1280.000000pt" height="300.000000pt" viewBox="0 0 1280.000000 300.000000"
 preserveAspectRatio="xMidYMid meet">
<metadata>
Created by potrace 1.15, written by Peter Selinger 2001-2017
</metadata>
<g transform="translate(0.000000,300.000000) scale(0.100000,-0.100000)"
fill="#000000" stroke="none">
<path d="M1582 2859 c-14 -5 -25 -35 -46 -122 l-28 -115 -41 -11 c-22 -5 -44
-8 -49 -5 -4 3 -8 0 -8 -5 0 -26 -30 -5 -97 68 -101 109 -113 110 -296 6 -63
-35 -89 -56 -94 -73 -3 -14 6 -68 21 -125 l27 -100 -48 -51 c-26 -28 -48 -52
-49 -53 0 -2 -40 8 -89 22 -122 36 -152 36 -182 -1 -45 -57 -123 -204 -123
-234 0 -24 15 -44 80 -107 l80 -78 -19 -67 c-11 -36 -17 -68 -15 -71 7 -6
-147 -47 -191 -51 -19 -1 -41 -8 -47 -14 -14 -14 -24 -240 -14 -295 6 -33 8
-34 89 -51 160 -34 150 -27 170 -113 l17 -75 -81 -76 c-80 -75 -81 -77 -76
-118 6 -56 113 -243 144 -250 12 -3 68 7 124 23 l102 28 59 -62 59 -61 -25
-84 c-35 -112 -34 -150 1 -174 95 -63 182 -107 225 -111 41 -5 48 -3 59 18 7
13 12 28 10 34 -1 5 1 7 5 2 4 -4 31 15 59 43 l51 51 81 -22 81 -22 27 -112
27 -113 36 -6 c49 -8 240 -6 272 3 14 4 25 13 25 21 0 8 3 20 6 25 4 6 14 44
23 85 9 41 20 80 24 86 4 5 42 19 86 31 l78 20 42 -45 c22 -24 52 -57 65 -73
38 -46 83 -40 201 26 101 57 126 77 115 95 -3 5 -1 10 4 10 17 0 12 49 -14
139 -28 97 -28 94 -16 87 5 -3 31 18 59 48 l51 53 81 -23 c99 -29 141 -30 163
-6 10 10 14 21 11 25 -3 3 3 18 14 34 38 54 102 180 102 200 0 12 -30 49 -76
93 l-76 72 22 78 22 78 101 21 c90 19 134 40 107 49 -6 2 -3 11 6 19 13 13 15
39 12 149 -2 73 -6 135 -9 138 -7 7 -137 43 -186 53 -22 4 -33 11 -33 22 0 9
-11 49 -24 89 -12 39 -19 69 -15 66 11 -6 140 116 133 127 -2 4 0 10 6 14 20
12 9 49 -42 139 -72 128 -81 137 -140 134 -26 -2 -48 -6 -48 -9 0 -10 -89 -30
-101 -24 -5 4 -9 1 -9 -4 0 -21 -15 -11 -78 50 l-63 61 31 106 c29 100 30 105
13 124 -31 35 -216 132 -257 135 -36 3 -42 -1 -105 -69 -36 -39 -65 -76 -63
-81 1 -4 -8 -5 -20 -1 -13 4 -45 13 -72 20 -26 7 -49 14 -51 16 -1 2 -15 51
-30 111 l-28 107 -40 11 c-42 11 -263 10 -295 -2z m835 -180 c51 -29 100 -60
109 -70 16 -18 16 -22 1 -52 -18 -38 -47 -133 -47 -156 0 -9 27 -43 61 -76 68
-68 84 -91 69 -100 -14 -9 -150 124 -150 147 0 10 12 61 27 114 l27 96 -24 18
c-14 11 -60 38 -102 62 -43 23 -78 48 -78 55 0 19 6 17 107 -38z m-412 -284
c399 -118 668 -477 668 -890 0 -121 -21 -236 -59 -322 -12 -29 -25 -53 -27
-53 -2 0 -53 63 -112 140 l-108 140 -44 0 -43 0 0 -195 c0 -107 -2 -195 -4
-195 -2 0 -11 3 -20 6 -14 5 -16 29 -17 153 0 80 -4 138 -7 128 -6 -15 -12
-11 -32 22 -21 34 -31 40 -64 43 -22 2 -41 8 -43 14 -4 11 177 34 272 34 47 0
48 0 30 20 -14 16 -31 20 -78 20 -33 0 -57 3 -54 6 6 7 -47 81 -68 96 -5 4
-26 8 -45 9 -24 1 -13 5 35 13 90 15 102 22 79 47 -14 16 -31 19 -95 19 l-78
0 -3 98 -3 97 -115 6 c-63 4 -137 7 -163 8 -28 0 -46 5 -42 11 3 5 -12 32 -34
59 -21 28 -41 55 -43 60 -1 6 -57 14 -123 18 l-120 8 100 7 c55 5 170 12 255
16 85 5 135 10 110 11 -36 1 -49 7 -64 29 -11 15 -70 92 -132 172 -62 80 -114
149 -116 155 -5 17 54 24 187 21 105 -3 147 -9 220 -31z m833 -566 c35 -109
40 -118 64 -128 51 -20 132 -41 158 -41 34 0 40 -23 40 -150 0 -66 -4 -91 -15
-100 -13 -11 -15 1 -15 96 0 60 -4 115 -9 123 -5 7 -51 25 -102 38 -52 13 -99
29 -105 36 -12 12 -64 174 -64 197 0 6 6 10 13 8 6 -2 23 -38 35 -79z m-2034
-150 c-54 -427 121 -797 476 -1004 78 -45 264 -124 297 -126 10 0 13 -3 7 -5
-7 -3 -42 2 -79 11 -272 63 -529 276 -651 540 -69 150 -99 332 -83 507 8 81
37 214 45 205 2 -2 -4 -59 -12 -128z"/>
<path d="M3530 1501 l0 -488 25 5 c14 2 25 8 25 13 0 5 135 9 305 9 l305 0 0
49 c0 28 5 53 10 56 6 3 10 15 10 26 0 18 -9 19 -227 20 -126 1 -234 1 -240 0
-20 -3 -18 737 2 763 8 10 12 23 9 27 -3 5 -54 9 -115 9 l-109 0 0 -489z"/>
<path d="M5320 1490 c0 -443 1 -469 18 -463 9 3 22 10 27 14 6 4 35 9 65 11
l55 3 0 148 c0 81 3 147 6 147 3 0 11 -17 17 -39 17 -56 186 -281 212 -281 11
0 20 5 20 11 0 6 26 9 72 8 108 -3 109 6 8 137 -129 169 -134 174 -156 174
-12 0 -25 7 -28 16 -5 12 26 47 106 125 62 59 120 108 129 109 19 0 39 19 39
37 0 10 -23 13 -92 13 l-92 0 -118 -118 -118 -118 0 242 c0 151 4 245 10 249
6 3 10 15 10 26 0 17 -8 19 -95 19 l-95 0 0 -470z"/>
<path d="M6336 1939 c-123 -30 -245 -133 -304 -256 -37 -78 -37 -79 -37 -208
0 -167 16 -214 98 -297 33 -32 65 -58 72 -58 8 0 18 -6 22 -13 13 -22 127 -66
190 -75 116 -16 238 6 366 66 l57 27 0 150 c0 99 4 155 11 162 7 7 9 19 6 28
-6 13 -29 15 -184 13 l-178 -3 -3 -77 c-3 -77 -3 -78 22 -78 14 0 28 5 31 10
3 6 33 10 65 10 l59 0 -6 -57 c-3 -32 -7 -59 -8 -61 -2 -2 -29 -10 -60 -18
-84 -22 -159 -6 -234 50 -35 26 -110 123 -111 142 0 6 -7 18 -16 25 -13 11
-15 29 -12 99 6 125 51 198 152 248 50 25 157 39 189 25 72 -32 120 -59 124
-70 6 -15 43 -18 43 -4 0 20 51 69 79 74 48 10 46 33 -7 72 -82 59 -142 77
-272 81 -63 2 -132 -1 -154 -7z"/>
<path d="M10667 1943 c-4 -3 -7 -210 -7 -460 l0 -453 24 0 c14 0 28 5 31 10 3
6 21 10 38 10 18 0 42 3 55 6 l22 6 0 409 c0 293 3 415 12 428 6 10 8 26 5 35
-5 13 -22 16 -90 16 -46 0 -87 -3 -90 -7z"/>
<path d="M10977 1943 c-4 -3 -7 -210 -7 -460 l0 -453 24 0 c14 0 28 5 31 10 3
6 21 10 38 10 18 0 42 3 55 6 l22 6 0 409 c0 293 3 415 12 428 6 10 8 26 5 35
-5 13 -22 16 -90 16 -46 0 -87 -3 -90 -7z"/>
<path d="M8690 1880 c0 -18 79 -205 198 -465 186 -411 198 -435 222 -433 21 3
36 28 120 210 53 114 101 213 106 218 8 8 13 -6 17 -47 4 -43 24 -100 78 -221
68 -150 76 -162 99 -160 21 3 34 23 94 153 38 83 127 276 197 430 88 192 137
286 154 298 14 10 25 25 25 33 0 12 -18 14 -101 12 l-100 -3 -121 -268 -121
-268 -48 101 c-27 55 -53 100 -59 100 -6 0 -14 10 -19 22 -11 29 88 244 124
271 50 37 33 47 -75 47 l-100 0 -16 -37 -16 -38 -19 38 -19 37 -100 0 -100 0
0 -30 c0 -17 28 -91 62 -165 l61 -135 -48 -105 c-55 -120 -43 -124 -116 38
-23 51 -50 112 -61 137 -12 25 -42 92 -68 150 l-48 105 -101 3 -101 3 0 -31z"/>
<path d="M4317 1873 c-4 -3 -7 -42 -7 -85 0 -76 1 -78 24 -78 14 0 28 5 31 10
3 6 21 10 38 10 66 0 77 8 77 54 0 23 5 47 11 53 7 7 9 19 6 27 -5 13 -23 16
-90 16 -46 0 -87 -3 -90 -7z"/>
<path d="M12005 1858 c-3 -7 -6 -56 -7 -108 l-3 -95 -45 -3 c-63 -5 -70 -14
-70 -93 l0 -69 30 0 c17 0 30 5 30 10 0 6 15 10 33 10 l32 0 -3 -181 c-5 -229
-2 -243 46 -266 55 -27 184 -21 259 12 31 14 58 23 61 20 3 -3 11 0 18 6 10 8
9 21 -5 62 -21 62 -40 68 -109 39 -28 -12 -58 -18 -74 -15 l-28 5 -1 144 c-1
79 -2 150 -3 157 -1 8 25 13 86 17 48 3 91 10 96 15 5 6 12 36 16 68 l6 57
-87 1 c-49 1 -94 1 -100 0 -17 -2 -18 142 -1 168 6 10 8 26 5 35 -5 13 -22 16
-92 16 -59 0 -87 -4 -90 -12z"/>
<path d="M4322 1648 c-9 -9 -12 -93 -12 -315 l0 -303 24 0 c14 0 28 5 31 10 3
6 21 10 38 10 18 0 42 3 55 6 l22 6 0 264 c0 187 3 270 12 283 9 15 9 23 -1
35 -17 20 -150 23 -169 4z"/>
<path d="M4838 1641 c-22 -11 -40 -15 -46 -9 -5 5 -44 8 -88 6 l-79 -3 -3
-302 -2 -303 24 0 c14 0 28 5 31 10 3 6 21 10 38 10 18 0 42 3 55 6 l23 7 -2
194 c-2 194 -2 195 22 219 17 17 41 26 76 31 50 5 52 5 68 -27 27 -52 29 -66
32 -262 l4 -188 24 0 c13 0 26 4 29 9 3 4 28 11 56 13 28 3 52 7 55 9 7 7 8
379 1 386 -3 3 -2 11 4 18 13 16 -6 82 -36 121 -13 18 -43 41 -67 53 -57 28
-167 29 -219 2z"/>
<path d="M8508 1640 c-30 -16 -37 -17 -42 -5 -7 20 -124 21 -131 2 -3 -7 -4
-150 -3 -319 l3 -308 29 15 c15 8 50 15 77 15 l50 0 -1 214 c-1 157 2 219 11
234 18 29 56 44 95 36 30 -6 35 -3 54 28 11 19 31 41 45 48 14 7 25 19 25 27
0 37 -151 46 -212 13z"/>
<path d="M10110 1651 c-87 -27 -165 -96 -203 -180 -25 -55 -29 -193 -8 -254
26 -76 135 -157 237 -176 49 -9 180 4 200 21 9 6 7 24 -6 66 l-18 57 -61 1
c-43 2 -71 8 -96 24 -19 12 -35 25 -35 28 0 4 -15 25 -34 47 -80 92 -32 209
95 229 31 5 50 1 89 -19 28 -14 55 -36 59 -48 37 -96 41 -126 41 -271 l0 -148
23 6 c23 7 45 11 110 21 l37 6 0 265 c0 187 3 270 12 283 9 15 9 23 -1 35 -18
22 -163 23 -180 2 -11 -13 -18 -13 -53 0 -43 15 -165 18 -208 5z"/>
<path d="M7770 1641 c-87 -27 -165 -96 -203 -180 -25 -55 -29 -193 -8 -254 26
-76 135 -157 237 -176 49 -9 180 4 200 21 9 6 7 24 -6 66 l-18 57 -61 1 c-43
2 -71 8 -96 24 -19 12 -35 25 -35 28 0 4 -15 25 -34 47 -80 92 -32 209 95 229
31 5 50 1 89 -19 28 -14 55 -36 59 -48 37 -96 41 -126 41 -271 l0 -148 23 6
c23 7 45 11 110 21 l37 6 0 265 c0 187 3 270 12 283 9 15 9 23 -1 35 -18 22
-163 23 -180 2 -11 -13 -18 -13 -53 0 -43 15 -165 18 -208 5z"/>
<path d="M11432 1633 c-61 -21 -145 -102 -173 -165 -18 -43 -23 -70 -22 -143
1 -109 16 -149 75 -200 83 -71 170 -97 280 -85 74 9 118 25 173 64 17 12 42
27 58 34 35 15 34 34 -4 66 -39 33 -73 33 -123 -1 -33 -24 -49 -28 -107 -28
-60 0 -71 3 -105 31 -22 17 -53 39 -71 49 -18 10 -30 22 -27 27 3 4 108 8 235
8 l229 0 2 38 c0 20 2 51 3 67 7 101 -72 208 -175 239 -67 20 -191 19 -248 -1z
m187 -128 c35 -22 50 -43 57 -83 2 -10 -25 -13 -121 -11 -68 0 -128 -2 -134
-6 -20 -12 -24 25 -5 53 46 71 134 91 203 47z"/>
<path d="M7082 1623 c-61 -21 -145 -102 -173 -165 -18 -43 -23 -70 -22 -143 1
-109 16 -149 75 -200 83 -71 170 -97 280 -85 74 9 118 25 173 64 17 12 42 27
58 34 35 15 34 34 -4 66 -39 33 -73 33 -123 -1 -33 -24 -49 -28 -107 -28 -60
0 -71 3 -105 31 -22 17 -53 39 -71 49 -18 10 -30 22 -27 27 3 4 108 8 235 8
l229 0 2 38 c0 20 2 51 3 67 7 101 -72 208 -175 239 -67 20 -191 19 -248 -1z
m187 -128 c35 -22 50 -43 57 -83 2 -10 -25 -13 -121 -11 -68 0 -128 -2 -134
-6 -20 -12 -24 25 -5 53 46 71 134 91 203 47z"/>
</g>
</svg>
